<mxfile host="app.diagrams.net" modified="2023-05-03T12:28:40.077Z" agent="Mozilla/5.0 (Windows NT 10.0; Win64; x64) AppleWebKit/537.36 (KHTML, like Gecko) Chrome/112.0.0.0 Safari/537.36" etag="Tj6T_CorspkFO4AcknRW" version="21.2.6" type="github" pages="2">
  <diagram name="Page-1" id="2a216829-ef6e-dabb-86c1-c78162f3ba2b">
    <mxGraphModel dx="880" dy="484" grid="1" gridSize="10" guides="1" tooltips="1" connect="1" arrows="1" fold="1" page="1" pageScale="1" pageWidth="827" pageHeight="1169" background="none" math="0" shadow="0">
      <root>
        <mxCell id="0" />
        <mxCell id="1" parent="0" />
        <mxCell id="7a84cebc1def654-1" value="" style="shape=mxgraph.bpmn.shape;html=1;verticalLabelPosition=bottom;labelBackgroundColor=#ffffff;verticalAlign=top;perimeter=ellipsePerimeter;outline=standard;symbol=general;" parent="1" vertex="1">
          <mxGeometry x="260" y="265" width="50" height="50" as="geometry" />
        </mxCell>
        <mxCell id="7a84cebc1def654-2" value="Task" style="shape=ext;rounded=1;html=1;whiteSpace=wrap;" parent="1" vertex="1">
          <mxGeometry x="360" y="250" width="120" height="80" as="geometry" />
        </mxCell>
        <mxCell id="7a84cebc1def654-3" value="Task" style="shape=ext;rounded=1;html=1;whiteSpace=wrap;" parent="1" vertex="1">
          <mxGeometry x="530" y="250" width="120" height="80" as="geometry" />
        </mxCell>
        <mxCell id="7a84cebc1def654-4" value="" style="shape=message;whiteSpace=wrap;html=1;" parent="1" vertex="1">
          <mxGeometry x="400" y="175" width="40" height="30" as="geometry" />
        </mxCell>
        <mxCell id="7a84cebc1def654-5" value="" style="shape=message;whiteSpace=wrap;html=1;" parent="1" vertex="1">
          <mxGeometry x="570" y="175" width="40" height="30" as="geometry" />
        </mxCell>
        <mxCell id="7a84cebc1def654-6" value="" style="shape=hexagon;whiteSpace=wrap;html=1;perimeter=hexagonPerimeter;" parent="1" vertex="1">
          <mxGeometry x="560" y="375" width="60" height="50" as="geometry" />
        </mxCell>
        <mxCell id="7a84cebc1def654-7" value="" style="html=1;shape=plus;" parent="7a84cebc1def654-6" vertex="1">
          <mxGeometry x="0.5" y="1" width="14" height="14" relative="1" as="geometry">
            <mxPoint x="-7" y="-14" as="offset" />
          </mxGeometry>
        </mxCell>
        <mxCell id="7a84cebc1def654-8" value="Task" style="shape=ext;rounded=1;html=1;whiteSpace=wrap;" parent="1" vertex="1">
          <mxGeometry x="530" y="475" width="120" height="80" as="geometry" />
        </mxCell>
        <mxCell id="7a84cebc1def654-9" value="" style="shape=mxgraph.bpmn.shape;html=1;verticalLabelPosition=bottom;labelBackgroundColor=#ffffff;verticalAlign=top;perimeter=rhombusPerimeter;background=gateway;outline=none;symbol=parallelGw;" parent="1" vertex="1">
          <mxGeometry x="695" y="490" width="50" height="50" as="geometry" />
        </mxCell>
        <mxCell id="7a84cebc1def654-12" value="Sub-Process" style="html=1;whiteSpace=wrap;rounded=1;" parent="1" vertex="1">
          <mxGeometry x="970" y="250" width="120" height="80" as="geometry" />
        </mxCell>
        <mxCell id="7a84cebc1def654-13" value="" style="html=1;shape=plus;" parent="7a84cebc1def654-12" vertex="1">
          <mxGeometry x="0.5" y="1" width="14" height="14" relative="1" as="geometry">
            <mxPoint x="-7" y="-14" as="offset" />
          </mxGeometry>
        </mxCell>
        <mxCell id="7a84cebc1def654-14" value="Receive" style="html=1;whiteSpace=wrap;rounded=1;" parent="1" vertex="1">
          <mxGeometry x="780" y="250" width="120" height="80" as="geometry" />
        </mxCell>
        <mxCell id="7a84cebc1def654-15" value="" style="html=1;shape=message;" parent="7a84cebc1def654-14" vertex="1">
          <mxGeometry width="20" height="14" relative="1" as="geometry">
            <mxPoint x="7" y="7" as="offset" />
          </mxGeometry>
        </mxCell>
        <mxCell id="7a84cebc1def654-16" value="Process" style="html=1;whiteSpace=wrap;rounded=1;" parent="1" vertex="1">
          <mxGeometry x="905" y="475" width="120" height="80" as="geometry" />
        </mxCell>
        <mxCell id="7a84cebc1def654-17" value="" style="shape=mxgraph.bpmn.timer_start;perimeter=ellipsePerimeter;html=1;labelPosition=right;labelBackgroundColor=#ffffff;align=left;" parent="7a84cebc1def654-16" vertex="1">
          <mxGeometry x="1" width="30" height="30" relative="1" as="geometry">
            <mxPoint x="-15" y="10" as="offset" />
          </mxGeometry>
        </mxCell>
        <mxCell id="7a84cebc1def654-18" value="Process" style="html=1;whiteSpace=wrap;rounded=1;" parent="1" vertex="1">
          <mxGeometry x="1220" y="775" width="120" height="80" as="geometry" />
        </mxCell>
        <mxCell id="7a84cebc1def654-19" value="" style="shape=mxgraph.bpmn.timer_start;perimeter=ellipsePerimeter;html=1;labelPosition=right;labelBackgroundColor=#ffffff;align=left;" parent="7a84cebc1def654-18" vertex="1">
          <mxGeometry x="1" width="30" height="30" relative="1" as="geometry">
            <mxPoint x="-15" y="10" as="offset" />
          </mxGeometry>
        </mxCell>
        <mxCell id="7a84cebc1def654-20" value="Receive" style="html=1;whiteSpace=wrap;rounded=1;" parent="1" vertex="1">
          <mxGeometry x="1050" y="775" width="120" height="80" as="geometry" />
        </mxCell>
        <mxCell id="7a84cebc1def654-21" value="" style="html=1;shape=message;" parent="7a84cebc1def654-20" vertex="1">
          <mxGeometry width="20" height="14" relative="1" as="geometry">
            <mxPoint x="7" y="7" as="offset" />
          </mxGeometry>
        </mxCell>
        <mxCell id="7a84cebc1def654-22" value="Sub-Process" style="html=1;whiteSpace=wrap;rounded=1;" parent="1" vertex="1">
          <mxGeometry x="905" y="775" width="120" height="80" as="geometry" />
        </mxCell>
        <mxCell id="7a84cebc1def654-23" value="" style="html=1;shape=plus;" parent="7a84cebc1def654-22" vertex="1">
          <mxGeometry x="0.5" y="1" width="14" height="14" relative="1" as="geometry">
            <mxPoint x="-7" y="-14" as="offset" />
          </mxGeometry>
        </mxCell>
        <mxCell id="7a84cebc1def654-24" value="" style="shape=mxgraph.bpmn.shape;html=1;verticalLabelPosition=bottom;labelBackgroundColor=#ffffff;verticalAlign=top;perimeter=rhombusPerimeter;background=gateway;outline=none;symbol=parallelGw;" parent="1" vertex="1">
          <mxGeometry x="1255" y="490" width="50" height="50" as="geometry" />
        </mxCell>
        <mxCell id="7a84cebc1def654-26" value="" style="shape=mxgraph.bpmn.shape;html=1;verticalLabelPosition=bottom;labelBackgroundColor=#ffffff;verticalAlign=top;perimeter=ellipsePerimeter;outline=end;symbol=general;" parent="1" vertex="1">
          <mxGeometry x="1390" y="490.00000000000006" width="50" height="50" as="geometry" />
        </mxCell>
        <mxCell id="7a84cebc1def654-27" value="" style="shape=message;whiteSpace=wrap;html=1;" parent="1" vertex="1">
          <mxGeometry x="820" y="175" width="40" height="30" as="geometry" />
        </mxCell>
        <mxCell id="7a84cebc1def654-28" value="" style="shape=message;whiteSpace=wrap;html=1;" parent="1" vertex="1">
          <mxGeometry x="1010" y="175" width="40" height="30" as="geometry" />
        </mxCell>
        <mxCell id="7a84cebc1def654-29" value="Sub-Process" style="html=1;whiteSpace=wrap;rounded=1;" parent="1" vertex="1">
          <mxGeometry x="660" y="655" width="120" height="80" as="geometry" />
        </mxCell>
        <mxCell id="7a84cebc1def654-30" value="" style="html=1;shape=plus;" parent="7a84cebc1def654-29" vertex="1">
          <mxGeometry x="0.5" y="1" width="14" height="14" relative="1" as="geometry">
            <mxPoint x="-7" y="-14" as="offset" />
          </mxGeometry>
        </mxCell>
        <mxCell id="7a84cebc1def654-31" value="" style="shape=message;whiteSpace=wrap;html=1;" parent="1" vertex="1">
          <mxGeometry x="700" y="775" width="40" height="30" as="geometry" />
        </mxCell>
        <mxCell id="7a84cebc1def654-32" value="" style="shape=message;whiteSpace=wrap;html=1;" parent="1" vertex="1">
          <mxGeometry x="1090" y="895" width="40" height="30" as="geometry" />
        </mxCell>
        <mxCell id="7a84cebc1def654-33" value="" style="shape=message;whiteSpace=wrap;html=1;" parent="1" vertex="1">
          <mxGeometry x="1260" y="895" width="40" height="30" as="geometry" />
        </mxCell>
        <mxCell id="7a84cebc1def654-34" value="" style="shape=message;whiteSpace=wrap;html=1;" parent="1" vertex="1">
          <mxGeometry x="945" y="895" width="40" height="30" as="geometry" />
        </mxCell>
        <mxCell id="7a84cebc1def654-35" value="" style="shape=message;whiteSpace=wrap;html=1;" parent="1" vertex="1">
          <mxGeometry x="945" y="595" width="40" height="30" as="geometry" />
        </mxCell>
        <mxCell id="7a84cebc1def654-36" style="edgeStyle=orthogonalEdgeStyle;rounded=0;html=1;jettySize=auto;orthogonalLoop=1;" parent="1" source="7a84cebc1def654-1" target="7a84cebc1def654-2" edge="1">
          <mxGeometry relative="1" as="geometry" />
        </mxCell>
        <mxCell id="7a84cebc1def654-37" style="edgeStyle=orthogonalEdgeStyle;rounded=0;html=1;jettySize=auto;orthogonalLoop=1;endArrow=none;endFill=0;" parent="1" source="7a84cebc1def654-4" target="7a84cebc1def654-2" edge="1">
          <mxGeometry relative="1" as="geometry" />
        </mxCell>
        <mxCell id="7a84cebc1def654-38" style="edgeStyle=orthogonalEdgeStyle;rounded=0;html=1;jettySize=auto;orthogonalLoop=1;endArrow=none;endFill=0;" parent="1" source="7a84cebc1def654-5" target="7a84cebc1def654-3" edge="1">
          <mxGeometry relative="1" as="geometry" />
        </mxCell>
        <mxCell id="7a84cebc1def654-39" style="edgeStyle=orthogonalEdgeStyle;rounded=0;html=1;jettySize=auto;orthogonalLoop=1;" parent="1" source="7a84cebc1def654-2" target="7a84cebc1def654-3" edge="1">
          <mxGeometry relative="1" as="geometry" />
        </mxCell>
        <mxCell id="7a84cebc1def654-40" style="edgeStyle=orthogonalEdgeStyle;rounded=0;html=1;jettySize=auto;orthogonalLoop=1;" parent="1" source="7a84cebc1def654-14" target="7a84cebc1def654-12" edge="1">
          <mxGeometry relative="1" as="geometry" />
        </mxCell>
        <mxCell id="7a84cebc1def654-41" style="edgeStyle=orthogonalEdgeStyle;rounded=0;html=1;jettySize=auto;orthogonalLoop=1;endArrow=none;endFill=0;" parent="1" source="7a84cebc1def654-27" target="7a84cebc1def654-14" edge="1">
          <mxGeometry relative="1" as="geometry" />
        </mxCell>
        <mxCell id="7a84cebc1def654-42" style="edgeStyle=orthogonalEdgeStyle;rounded=0;html=1;jettySize=auto;orthogonalLoop=1;endArrow=none;endFill=0;" parent="1" source="7a84cebc1def654-28" target="7a84cebc1def654-12" edge="1">
          <mxGeometry relative="1" as="geometry" />
        </mxCell>
        <mxCell id="7a84cebc1def654-43" style="edgeStyle=orthogonalEdgeStyle;rounded=0;html=1;jettySize=auto;orthogonalLoop=1;" parent="1" source="7a84cebc1def654-12" target="7a84cebc1def654-24" edge="1">
          <mxGeometry relative="1" as="geometry">
            <mxPoint x="1289.9999999999995" y="475" as="targetPoint" />
            <Array as="points">
              <mxPoint x="1280" y="290" />
            </Array>
          </mxGeometry>
        </mxCell>
        <mxCell id="7a84cebc1def654-44" style="edgeStyle=orthogonalEdgeStyle;rounded=0;html=1;jettySize=auto;orthogonalLoop=1;" parent="1" source="7a84cebc1def654-16" target="7a84cebc1def654-24" edge="1">
          <mxGeometry relative="1" as="geometry" />
        </mxCell>
        <mxCell id="7a84cebc1def654-45" style="edgeStyle=orthogonalEdgeStyle;rounded=0;html=1;jettySize=auto;orthogonalLoop=1;" parent="1" source="7a84cebc1def654-18" target="7a84cebc1def654-24" edge="1">
          <mxGeometry relative="1" as="geometry" />
        </mxCell>
        <mxCell id="7a84cebc1def654-46" style="edgeStyle=orthogonalEdgeStyle;rounded=0;html=1;jettySize=auto;orthogonalLoop=1;" parent="1" source="7a84cebc1def654-24" target="7a84cebc1def654-26" edge="1">
          <mxGeometry relative="1" as="geometry" />
        </mxCell>
        <mxCell id="7a84cebc1def654-47" style="edgeStyle=orthogonalEdgeStyle;rounded=0;html=1;jettySize=auto;orthogonalLoop=1;" parent="1" source="7a84cebc1def654-3" target="7a84cebc1def654-6" edge="1">
          <mxGeometry relative="1" as="geometry" />
        </mxCell>
        <mxCell id="7a84cebc1def654-48" style="edgeStyle=orthogonalEdgeStyle;rounded=0;html=1;jettySize=auto;orthogonalLoop=1;" parent="1" source="7a84cebc1def654-6" target="7a84cebc1def654-8" edge="1">
          <mxGeometry relative="1" as="geometry" />
        </mxCell>
        <mxCell id="7a84cebc1def654-49" style="edgeStyle=orthogonalEdgeStyle;rounded=0;html=1;jettySize=auto;orthogonalLoop=1;" parent="1" source="7a84cebc1def654-8" target="7a84cebc1def654-9" edge="1">
          <mxGeometry relative="1" as="geometry" />
        </mxCell>
        <mxCell id="7a84cebc1def654-50" style="edgeStyle=orthogonalEdgeStyle;rounded=0;html=1;jettySize=auto;orthogonalLoop=1;" parent="1" source="7a84cebc1def654-9" target="7a84cebc1def654-14" edge="1">
          <mxGeometry relative="1" as="geometry">
            <Array as="points">
              <mxPoint x="720" y="290" />
            </Array>
          </mxGeometry>
        </mxCell>
        <mxCell id="7a84cebc1def654-51" style="edgeStyle=orthogonalEdgeStyle;rounded=0;html=1;jettySize=auto;orthogonalLoop=1;" parent="1" source="7a84cebc1def654-9" target="7a84cebc1def654-29" edge="1">
          <mxGeometry relative="1" as="geometry" />
        </mxCell>
        <mxCell id="7a84cebc1def654-52" style="edgeStyle=orthogonalEdgeStyle;rounded=0;html=1;jettySize=auto;orthogonalLoop=1;endArrow=none;endFill=0;" parent="1" source="7a84cebc1def654-31" target="7a84cebc1def654-29" edge="1">
          <mxGeometry relative="1" as="geometry" />
        </mxCell>
        <mxCell id="7a84cebc1def654-53" value="" style="shape=mxgraph.bpmn.shape;html=1;verticalLabelPosition=bottom;labelBackgroundColor=#ffffff;verticalAlign=top;perimeter=rhombusPerimeter;background=gateway;outline=none;symbol=parallelGw;" parent="1" vertex="1">
          <mxGeometry x="830" y="670" width="50" height="50" as="geometry" />
        </mxCell>
        <mxCell id="7a84cebc1def654-54" style="edgeStyle=orthogonalEdgeStyle;rounded=0;html=1;jettySize=auto;orthogonalLoop=1;" parent="1" source="7a84cebc1def654-53" target="7a84cebc1def654-22" edge="1">
          <mxGeometry relative="1" as="geometry">
            <Array as="points">
              <mxPoint x="855" y="815" />
            </Array>
          </mxGeometry>
        </mxCell>
        <mxCell id="7a84cebc1def654-55" style="edgeStyle=orthogonalEdgeStyle;rounded=0;html=1;jettySize=auto;orthogonalLoop=1;" parent="1" source="7a84cebc1def654-53" target="7a84cebc1def654-16" edge="1">
          <mxGeometry relative="1" as="geometry">
            <Array as="points">
              <mxPoint x="855" y="515" />
            </Array>
          </mxGeometry>
        </mxCell>
        <mxCell id="7a84cebc1def654-56" style="edgeStyle=orthogonalEdgeStyle;rounded=0;html=1;jettySize=auto;orthogonalLoop=1;endArrow=none;endFill=0;" parent="1" source="7a84cebc1def654-35" target="7a84cebc1def654-16" edge="1">
          <mxGeometry relative="1" as="geometry" />
        </mxCell>
        <mxCell id="7a84cebc1def654-58" style="edgeStyle=orthogonalEdgeStyle;rounded=0;html=1;jettySize=auto;orthogonalLoop=1;" parent="1" source="7a84cebc1def654-29" target="7a84cebc1def654-53" edge="1">
          <mxGeometry relative="1" as="geometry" />
        </mxCell>
        <mxCell id="7a84cebc1def654-59" style="edgeStyle=orthogonalEdgeStyle;rounded=0;html=1;jettySize=auto;orthogonalLoop=1;" parent="1" source="7a84cebc1def654-22" target="7a84cebc1def654-20" edge="1">
          <mxGeometry relative="1" as="geometry" />
        </mxCell>
        <mxCell id="7a84cebc1def654-60" style="edgeStyle=orthogonalEdgeStyle;rounded=0;html=1;jettySize=auto;orthogonalLoop=1;endArrow=none;endFill=0;" parent="1" source="7a84cebc1def654-34" target="7a84cebc1def654-22" edge="1">
          <mxGeometry relative="1" as="geometry" />
        </mxCell>
        <mxCell id="7a84cebc1def654-61" style="edgeStyle=orthogonalEdgeStyle;rounded=0;html=1;jettySize=auto;orthogonalLoop=1;endArrow=none;endFill=0;" parent="1" source="7a84cebc1def654-32" target="7a84cebc1def654-20" edge="1">
          <mxGeometry relative="1" as="geometry" />
        </mxCell>
        <mxCell id="7a84cebc1def654-63" style="edgeStyle=orthogonalEdgeStyle;rounded=0;html=1;jettySize=auto;orthogonalLoop=1;endArrow=none;endFill=0;" parent="1" source="7a84cebc1def654-33" target="7a84cebc1def654-18" edge="1">
          <mxGeometry relative="1" as="geometry" />
        </mxCell>
        <mxCell id="7a84cebc1def654-64" style="edgeStyle=orthogonalEdgeStyle;rounded=0;html=1;jettySize=auto;orthogonalLoop=1;" parent="1" source="7a84cebc1def654-20" target="7a84cebc1def654-18" edge="1">
          <mxGeometry relative="1" as="geometry" />
        </mxCell>
      </root>
    </mxGraphModel>
  </diagram>
  <diagram id="3CTKNCbUm5S_f53kRRY_" name="Страница 2">
    <mxGraphModel dx="1035" dy="502" grid="1" gridSize="10" guides="1" tooltips="1" connect="1" arrows="1" fold="1" page="1" pageScale="1" pageWidth="827" pageHeight="1169" math="0" shadow="0">
      <root>
        <mxCell id="0" />
        <mxCell id="1" parent="0" />
        <mxCell id="PPboHKMFFnELC8cD73Gf-12" value="Вне системы" style="shape=table;startSize=70;container=1;collapsible=0;childLayout=tableLayout;fontSize=14;" parent="1" vertex="1">
          <mxGeometry x="240" y="210" width="670" height="650" as="geometry" />
        </mxCell>
        <mxCell id="PPboHKMFFnELC8cD73Gf-13" value="" style="shape=tableRow;horizontal=0;startSize=0;swimlaneHead=0;swimlaneBody=0;strokeColor=inherit;top=0;left=0;bottom=0;right=0;collapsible=0;dropTarget=0;fillColor=none;points=[[0,0.5],[1,0.5]];portConstraint=eastwest;fontSize=14;" parent="PPboHKMFFnELC8cD73Gf-12" vertex="1">
          <mxGeometry y="70" width="670" height="580" as="geometry" />
        </mxCell>
        <mxCell id="PPboHKMFFnELC8cD73Gf-14" value="" style="shape=partialRectangle;html=1;whiteSpace=wrap;connectable=0;strokeColor=inherit;overflow=hidden;fillColor=none;top=0;left=0;bottom=0;right=0;pointerEvents=1;fontSize=14;" parent="PPboHKMFFnELC8cD73Gf-13" vertex="1">
          <mxGeometry width="670" height="580" as="geometry">
            <mxRectangle width="670" height="580" as="alternateBounds" />
          </mxGeometry>
        </mxCell>
        <mxCell id="oRsOvkuGw3CPRXZNTjtT-8" value="" style="shape=table;childLayout=tableLayout;startSize=0;fillColor=none;collapsible=0;recursiveResize=0;expand=0;dashed=1;dashPattern=12 12;fontSize=14;" vertex="1" parent="1">
          <mxGeometry x="280" y="330" width="600" height="160" as="geometry" />
        </mxCell>
        <mxCell id="oRsOvkuGw3CPRXZNTjtT-9" value="" style="shape=tableRow;horizontal=0;swimlaneHead=0;swimlaneBody=0;top=0;left=0;strokeColor=inherit;bottom=0;right=0;dropTarget=0;fontStyle=0;fillColor=none;points=[[0,0.5],[1,0.5]];portConstraint=eastwest;startSize=0;collapsible=0;recursiveResize=0;expand=0;fontSize=14;" vertex="1" parent="oRsOvkuGw3CPRXZNTjtT-8">
          <mxGeometry width="600" height="160" as="geometry" />
        </mxCell>
        <mxCell id="oRsOvkuGw3CPRXZNTjtT-10" value="" style="swimlane;swimlaneHead=0;swimlaneBody=0;fontStyle=0;strokeColor=inherit;connectable=0;fillColor=none;startSize=0;collapsible=0;recursiveResize=0;expand=0;dashed=1;fontSize=14;" vertex="1" parent="oRsOvkuGw3CPRXZNTjtT-9">
          <mxGeometry width="600" height="160" as="geometry">
            <mxRectangle width="600" height="160" as="alternateBounds" />
          </mxGeometry>
        </mxCell>
        <mxCell id="Cn0_v3Vu9-HvyLtkxX1V-1" value="" style="shape=mxgraph.bpmn.shape;html=1;verticalLabelPosition=bottom;labelBackgroundColor=#ffffff;verticalAlign=top;perimeter=ellipsePerimeter;outline=standard;symbol=general;fillColor=default;strokeColor=#82b366;strokeWidth=2;fontSize=14;" parent="1" vertex="1">
          <mxGeometry x="310" y="385" width="50" height="50" as="geometry" />
        </mxCell>
        <mxCell id="oRsOvkuGw3CPRXZNTjtT-2" value="" style="edgeStyle=orthogonalEdgeStyle;rounded=0;orthogonalLoop=1;jettySize=auto;html=1;fontSize=14;" edge="1" parent="1" source="Cn0_v3Vu9-HvyLtkxX1V-2" target="oRsOvkuGw3CPRXZNTjtT-1">
          <mxGeometry relative="1" as="geometry" />
        </mxCell>
        <mxCell id="Cn0_v3Vu9-HvyLtkxX1V-2" value="Инициация&lt;br style=&quot;font-size: 14px;&quot;&gt;процесса" style="shape=ext;rounded=1;html=1;whiteSpace=wrap;fontSize=14;" parent="1" vertex="1">
          <mxGeometry x="400" y="370" width="120" height="80" as="geometry" />
        </mxCell>
        <mxCell id="Cn0_v3Vu9-HvyLtkxX1V-3" style="edgeStyle=orthogonalEdgeStyle;rounded=0;html=1;jettySize=auto;orthogonalLoop=1;fontSize=14;" parent="1" source="Cn0_v3Vu9-HvyLtkxX1V-1" target="Cn0_v3Vu9-HvyLtkxX1V-2" edge="1">
          <mxGeometry relative="1" as="geometry" />
        </mxCell>
        <mxCell id="oRsOvkuGw3CPRXZNTjtT-4" value="" style="edgeStyle=orthogonalEdgeStyle;rounded=0;orthogonalLoop=1;jettySize=auto;html=1;fontSize=14;" edge="1" parent="1" source="oRsOvkuGw3CPRXZNTjtT-1" target="oRsOvkuGw3CPRXZNTjtT-3">
          <mxGeometry relative="1" as="geometry" />
        </mxCell>
        <mxCell id="oRsOvkuGw3CPRXZNTjtT-1" value="Передача данных о водителе" style="shape=ext;rounded=1;html=1;whiteSpace=wrap;fontSize=14;" vertex="1" parent="1">
          <mxGeometry x="560" y="370" width="120" height="80" as="geometry" />
        </mxCell>
        <mxCell id="oRsOvkuGw3CPRXZNTjtT-12" style="edgeStyle=orthogonalEdgeStyle;rounded=0;orthogonalLoop=1;jettySize=auto;html=1;exitX=1;exitY=0.5;exitDx=0;exitDy=0;fontSize=14;" edge="1" parent="1" source="oRsOvkuGw3CPRXZNTjtT-3" target="oRsOvkuGw3CPRXZNTjtT-11">
          <mxGeometry relative="1" as="geometry" />
        </mxCell>
        <mxCell id="oRsOvkuGw3CPRXZNTjtT-3" value="Получение данных о водителе на сайте ГИБДД" style="shape=ext;rounded=1;html=1;whiteSpace=wrap;fontSize=14;" vertex="1" parent="1">
          <mxGeometry x="720" y="370" width="120" height="80" as="geometry" />
        </mxCell>
        <mxCell id="oRsOvkuGw3CPRXZNTjtT-5" value="Информационная система учета автомобильного парка" style="shape=table;startSize=70;container=1;collapsible=0;childLayout=tableLayout;fontSize=14;" vertex="1" parent="1">
          <mxGeometry x="960" y="210" width="480" height="650" as="geometry" />
        </mxCell>
        <mxCell id="oRsOvkuGw3CPRXZNTjtT-6" value="" style="shape=tableRow;horizontal=0;startSize=0;swimlaneHead=0;swimlaneBody=0;strokeColor=inherit;top=0;left=0;bottom=0;right=0;collapsible=0;dropTarget=0;fillColor=none;points=[[0,0.5],[1,0.5]];portConstraint=eastwest;fontSize=14;" vertex="1" parent="oRsOvkuGw3CPRXZNTjtT-5">
          <mxGeometry y="70" width="480" height="580" as="geometry" />
        </mxCell>
        <mxCell id="oRsOvkuGw3CPRXZNTjtT-7" value="" style="shape=partialRectangle;html=1;whiteSpace=wrap;connectable=0;strokeColor=inherit;overflow=hidden;fillColor=none;top=0;left=0;bottom=0;right=0;pointerEvents=1;fontSize=14;" vertex="1" parent="oRsOvkuGw3CPRXZNTjtT-6">
          <mxGeometry width="480" height="580" as="geometry">
            <mxRectangle width="480" height="580" as="alternateBounds" />
          </mxGeometry>
        </mxCell>
        <mxCell id="oRsOvkuGw3CPRXZNTjtT-14" style="edgeStyle=orthogonalEdgeStyle;rounded=0;orthogonalLoop=1;jettySize=auto;html=1;exitX=1;exitY=0.5;exitDx=0;exitDy=0;entryX=0;entryY=0.5;entryDx=0;entryDy=0;fontSize=14;" edge="1" parent="1" source="oRsOvkuGw3CPRXZNTjtT-11" target="oRsOvkuGw3CPRXZNTjtT-13">
          <mxGeometry relative="1" as="geometry" />
        </mxCell>
        <mxCell id="oRsOvkuGw3CPRXZNTjtT-11" value="Ввод&lt;br style=&quot;font-size: 14px;&quot;&gt;данных" style="shape=ext;rounded=1;html=1;whiteSpace=wrap;fontSize=14;" vertex="1" parent="1">
          <mxGeometry x="1000" y="370" width="120" height="80" as="geometry" />
        </mxCell>
        <mxCell id="oRsOvkuGw3CPRXZNTjtT-16" style="edgeStyle=orthogonalEdgeStyle;rounded=0;orthogonalLoop=1;jettySize=auto;html=1;exitX=1;exitY=0.5;exitDx=0;exitDy=0;entryX=0.5;entryY=0;entryDx=0;entryDy=0;fontSize=14;" edge="1" parent="1" source="oRsOvkuGw3CPRXZNTjtT-13" target="oRsOvkuGw3CPRXZNTjtT-15">
          <mxGeometry relative="1" as="geometry" />
        </mxCell>
        <mxCell id="oRsOvkuGw3CPRXZNTjtT-13" value="Уведомление администратора" style="shape=ext;rounded=1;html=1;whiteSpace=wrap;fontSize=14;" vertex="1" parent="1">
          <mxGeometry x="1160" y="370" width="120" height="80" as="geometry" />
        </mxCell>
        <mxCell id="oRsOvkuGw3CPRXZNTjtT-19" style="edgeStyle=orthogonalEdgeStyle;rounded=0;orthogonalLoop=1;jettySize=auto;html=1;exitX=0.5;exitY=1;exitDx=0;exitDy=0;fontSize=14;" edge="1" parent="1" source="oRsOvkuGw3CPRXZNTjtT-15" target="oRsOvkuGw3CPRXZNTjtT-17">
          <mxGeometry relative="1" as="geometry" />
        </mxCell>
        <mxCell id="oRsOvkuGw3CPRXZNTjtT-29" style="edgeStyle=orthogonalEdgeStyle;rounded=0;orthogonalLoop=1;jettySize=auto;html=1;exitX=0;exitY=0.5;exitDx=0;exitDy=0;entryX=0.5;entryY=1;entryDx=0;entryDy=0;fontSize=14;" edge="1" parent="1" source="oRsOvkuGw3CPRXZNTjtT-15" target="oRsOvkuGw3CPRXZNTjtT-3">
          <mxGeometry relative="1" as="geometry" />
        </mxCell>
        <mxCell id="oRsOvkuGw3CPRXZNTjtT-15" value="" style="rhombus;whiteSpace=wrap;html=1;fontSize=14;" vertex="1" parent="1">
          <mxGeometry x="1280" y="490" width="80" height="80" as="geometry" />
        </mxCell>
        <mxCell id="oRsOvkuGw3CPRXZNTjtT-26" style="edgeStyle=orthogonalEdgeStyle;rounded=0;orthogonalLoop=1;jettySize=auto;html=1;exitX=0.5;exitY=1;exitDx=0;exitDy=0;entryX=0.5;entryY=0;entryDx=0;entryDy=0;fontSize=14;" edge="1" parent="1" source="oRsOvkuGw3CPRXZNTjtT-17" target="oRsOvkuGw3CPRXZNTjtT-23">
          <mxGeometry relative="1" as="geometry" />
        </mxCell>
        <mxCell id="oRsOvkuGw3CPRXZNTjtT-17" value="Подтверждение" style="shape=ext;rounded=1;html=1;whiteSpace=wrap;fontSize=14;" vertex="1" parent="1">
          <mxGeometry x="1260" y="610" width="120" height="80" as="geometry" />
        </mxCell>
        <mxCell id="oRsOvkuGw3CPRXZNTjtT-23" value="" style="shape=mxgraph.bpmn.shape;html=1;verticalLabelPosition=bottom;labelBackgroundColor=#ffffff;verticalAlign=top;perimeter=ellipsePerimeter;outline=standard;symbol=general;strokeColor=#FF0000;shadow=0;gradientColor=none;strokeWidth=2;fontSize=14;" vertex="1" parent="1">
          <mxGeometry x="1295" y="730" width="50" height="50" as="geometry" />
        </mxCell>
        <mxCell id="oRsOvkuGw3CPRXZNTjtT-30" value="вернуть на проверку" style="text;strokeColor=none;align=center;fillColor=none;html=1;verticalAlign=middle;whiteSpace=wrap;rounded=0;fontStyle=0;fontSize=14;" vertex="1" parent="1">
          <mxGeometry x="1060" y="500" width="160" height="30" as="geometry" />
        </mxCell>
      </root>
    </mxGraphModel>
  </diagram>
</mxfile>
